<?xml version="1.0" encoding="ISO-8859-1" standalone="no"?>
<!-- Created with Make The Cut! -->
<!DOCTYPE svg PUBLIC "-//W3C//DTD SVG 1.1//EN" "http://www.w3.org/Graphics/SVG/1.1/DTD/svg11.dtd">
<svg mtc_dpi="90" xmlns="http://www.w3.org/2000/svg" version="1.1">
	<g label="New Layer" id="New Layer">
		<path label="Layer 1 &#40;3&#41; &#40;1&#41;&#42; &#40;W&#41; &#40;W&#41;" id="Layer 1 &#40;3&#41; &#40;1&#41;&#42; &#40;W&#41; &#40;W&#41;" fill="#804000" stroke="#402000" stroke-linejoin="round" d="M162.866,406.525 C150.022,403.207 139.757,396.516 136.536,389.363 C133.413,382.429 144.329,366.801 156.389,360.941 C164.117,357.187 178.48,353.913 187.222,353.913 C190.163,353.913 189.849,353.597 186.038,352.722 C177.485,350.76 170.718,344.716 160.607,330.006 C156.658,324.262 155.309,321.667 156.038,321.217 C156.375,321.009 165.514,320.11 179.827,318.876 C186.659,318.288 193.092,317.712 194.123,317.598 C195.155,317.483 196.037,317.428 196.085,317.476 C196.172,317.562 195.518,318.328 192.502,321.671 C190.547,323.838 190.492,324.284 191.673,328.453 C194.756,339.342 200.792,347.03 213.108,355.754 C219.655,360.391 220.915,361.379 223.32,363.756 C227.082,367.476 228.225,369.778 228.225,373.638 C228.225,388.823 208.273,403.563 183.389,406.76 C178.47,407.392 165.654,407.246 162.866,406.525 z M196.922,317.163 C196.922,316.866 197.401,316.866 197.859,317.163 C198.133,317.34 198.069,317.391 197.566,317.393 C197.212,317.395 196.922,317.291 196.922,317.163 z M34.5048,447.69 C23.9378,445.653 18.3742,440.658 16.4595,431.487 C15.3849,426.34 15.8601,422.273 18.1215,417.265 C22.2083,408.213 28.6368,402.255 44.8558,392.487 C49.9687,389.407 50.9889,388.63 51.6431,387.316 C52.1481,386.301 53.5772,379.589 60.0575,347.792 C63.7306,329.77 64.7074,324.379 67.1999,308.375 C68.3327,301.102 68.3733,300.959 69.2544,301.17 C71.5085,301.709 88.4712,309.316 88.69,309.886 C88.777,310.113 88.7202,312.15 88.5639,314.413 C87.7793,325.768 87.5765,329.512 87.3229,337.331 C86.9441,349.008 87.3813,358.269 88.6757,365.988 C89.324,369.853 89.9737,370.998 93.826,375.063 L95.2079,376.521 L97.3491,376.875 C118.68,380.397 123.019,404.48 105.374,421.417 C99.2418,427.304 84.012,436.886 73.8798,441.234 C67.8905,443.803 59.5419,446.183 52.4345,447.347 C48.6241,447.971 37.1059,448.191 34.5048,447.69 z M258.291,355.962 C252.715,355.437 244.399,352.931 238.637,350.039 L236.232,348.832 L237.032,347.728 C237.834,346.62 243.321,338.726 245.493,335.555 L246.653,333.861 L247.395,334.626 C248.282,335.539 251.869,337.316 255.083,338.435 C268.212,343.005 281.733,340.559 298.252,330.627 C304.325,326.975 308.509,324.009 324.518,312.007 C347.045,295.118 357.433,289.211 370.439,285.894 C376.732,284.289 385.06,283.693 388.537,284.598 C395.39,286.382 406.751,291.041 416.845,296.205 C444.821,310.52 451.528,322.972 435.578,330.988 L433.685,331.939 L431.052,330.552 C426.419,328.113 421.764,324.762 414.15,318.387 C401.686,307.95 393.345,303.686 386.351,304.174 C372.476,305.144 357.189,311.555 333.173,326.477 C329.693,328.639 323.839,332.274 320.166,334.553 C298.987,347.695 286.796,353.159 273.525,355.457 C270.892,355.913 261.185,356.235 258.291,355.962 z M319.856,282.124 C287.494,278.297 263.045,268.045 245.598,250.986 C214.186,220.273 219.256,177.969 258.536,143.041 C263.754,138.401 263.316,139.206 262.889,135.029 C262.578,131.981 262.742,132.091 259.587,132.805 C245.155,136.068 229.284,129.367 222.187,117.016 C208.291,92.829 215.294,65.1135 237.942,54.6636 C255.03,46.7793 282.261,56.2724 288.591,72.3204 L289.466,74.5396 L291.694,72.8945 C292.919,71.9898 295.09,70.4854 296.518,69.5516 C298.913,67.9849 299.88,67.4148 304.505,64.8389 C306.853,63.5307 306.849,63.5157 303.167,59.9317 C298.539,55.4264 294.783,52.7365 287.981,49.0555 C284.796,47.3317 284.788,47.3132 286.974,46.7913 C292.662,45.4337 301.188,45.7335 308.372,47.5436 C313.013,48.713 312.439,49.0467 313.649,44.4768 C314.886,39.8058 317.967,32.5452 320.032,29.4357 C321.037,27.9207 321.097,27.9853 321.481,31.0002 C322.542,39.343 325.823,50.8041 327.967,53.6534 L328.411,54.2437 L330.52,51.0039 C337.143,40.8323 343.536,35.5098 353.841,31.5877 C361.027,28.8525 361.341,29.0094 357.997,33.6641 C353.702,39.6421 348.453,50.1187 347.843,53.9301 C347.643,55.1839 347.795,55.2439 352.434,55.7343 C359.402,56.4708 365.072,57.6639 370.93,59.6265 C374.839,60.9359 374.547,61.0327 374.917,58.3049 C377.564,38.787 402.298,22.4005 421.575,27.3931 C445.216,33.5159 457.8,56.9206 451.239,82.5627 C448.001,95.2128 435.559,105.913 421.929,107.769 C418.248,108.27 418.421,108.054 419.222,111.136 C419.821,113.442 419.844,113.46 424.976,115.472 C453.623,126.699 473.113,147.019 478.069,170.825 C479.081,175.686 479.627,184.576 479.141,188.266 C477.73,198.961 475.919,205.213 471.908,213.229 C455.259,246.504 415.713,271.713 366.966,280.125 C353.109,282.516 331.079,283.451 319.856,282.124 z M43.8142,283.335 C34.1669,281.455 25.1206,271.433 18.1829,254.938 C10.841,237.483 9.09733,222.858 12.75,209.369 C14.4766,202.992 15.9451,200.273 22.0909,192.073 C24.5686,188.767 27.5984,186.6 30.198,186.276 C37.2275,185.397 51.4689,196.602 56.7925,207.199 C60.6605,214.899 64.3588,228.694 65.1503,238.374 C65.4016,241.448 65.574,241.307 66.5233,237.25 C68.2505,229.869 72.1456,223.721 79.7742,216.333 L82.8687,213.336 L82.5861,204.38 C81.6248,173.907 86.5306,154.092 102.515,123.889 L104.65,119.855 L103.763,119.405 C100.283,117.637 83.5739,112.078 75.5223,110.01 C69.4099,108.439 66.7914,108.033 62.6814,108.017 C56.3173,107.993 54.5737,108.97 50.7011,114.731 C45.5993,122.32 40.4865,125.096 32.3583,124.693 C13.2928,123.746 0,99.7333 0.0245596,66.283 C0.0390664,46.5247 5.11024,30.2552 12.8844,25.0256 C18.5036,21.2457 28.0547,21.951 35.1463,26.6696 C42.5976,31.6275 47.1554,40.2306 52.0155,58.5115 C53.924,65.6903 54.2938,66.7074 55.2573,67.429 C59.3846,70.52 109.021,97.9092 116.536,101.242 C118.13,101.949 118.429,101.934 119.593,101.091 C134.368,90.3879 151.021,82.9194 168.989,78.9386 C176.524,77.2691 187.735,75.5419 191.04,75.5411 L192.251,75.5408 L195.453,78.8807 C219.7,104.17 215.762,152.354 185.361,202.358 C182.223,207.52 182.074,208.197 182.901,213.588 C186.829,239.188 177.948,262.431 159.753,274.167 C145.444,283.396 125.221,281.634 110.501,269.874 C102.364,263.373 97.5105,257.552 90.9294,246.4 C89.1501,243.385 88.5592,243.204 85.6501,244.782 C77.189,249.373 72.8772,254.009 64.1916,267.849 C57.1935,279.001 55.0249,281.52 51.231,282.903 C49.2915,283.611 46.163,283.793 43.8142,283.335 z " />
	</g>
	<g label="New Layer" id="New Layer">
		<path label="Layer 1 &#40;1&#41; &#40;W&#41; &#40;W&#41;" id="Layer 1 &#40;1&#41; &#40;W&#41; &#40;W&#41;" fill="#d76b00" stroke="#6b3500" stroke-linejoin="round" d="M652.95,266.355 C562.804,260.738 530.971,186.51 597.872,137.924 C599.612,136.66 601.127,135.545 601.238,135.445 C601.349,135.346 601.17,134.438 600.84,133.427 C594.881,115.159 606.115,94.5802 629.6,80.7443 C675.322,53.8078 730.109,71.5877 719.473,109.911 C719.098,111.264 718.737,112.551 718.671,112.769 C718.58,113.073 718.763,113.222 719.442,113.395 C724.631,114.721 729.924,116.214 732.841,117.174 C775.115,131.083 796.128,163.844 784.629,197.918 C770.795,238.912 711.03,269.974 652.95,266.355 z M569.969,91.6015 C560.472,90.2096 548.687,77.3918 546.158,65.7028 C541.715,45.1691 560.16,23.9694 580.331,26.4266 C591.791,27.8226 600.778,33.5979 603.624,41.3953 C605.166,45.6196 605.078,47.3174 603.246,48.6976 C601.723,49.8451 596.221,55.705 593.611,58.96 C585.101,69.5725 579.54,79.4037 576.932,88.4475 C576.309,90.6111 575.817,91.0501 573.53,91.4878 C572.53,91.6791 571.589,91.8224 571.44,91.8064 C571.29,91.7903 570.628,91.6981 569.969,91.6015 z M724.473,67.2286 C724.417,67.1319 723.885,65.8918 723.289,64.4729 C720.052,56.7587 714.59,49.077 706.431,40.7658 L702.023,36.2757 L702.634,33.5548 C707.623,11.3083 724.732,0 742.525,7.18782 C754.867,12.1736 764.458,29.1042 762.297,42.0919 C760.139,55.0639 755.762,60.262 744.146,63.6457 C738.305,65.3475 724.805,67.806 724.473,67.2286 z " />
	</g>
	<g label="New Layer" id="New Layer">
		<path label="Basic&#58; Rectangle &#40;B&#41; &#40;W&#41; &#40;J&#41;" id="Basic&#58; Rectangle &#40;B&#41; &#40;W&#41; &#40;J&#41;" fill="none" stroke="black" stroke-linejoin="round" d="M636.941,459.976 C636.616,459.955 634.391,459.923 631.997,459.905 C614.008,459.77 592.865,455.907 577.249,449.901 C573.833,448.588 573.089,448.377 572.797,448.642 C572.604,448.817 571.925,449.508 571.289,450.177 C567.376,454.289 561.723,456 558.519,454.042 C557.75,453.572 557.717,453.333 558.412,453.276 C559.15,453.217 561.612,452.166 562.991,451.322 C569.337,447.437 574.652,439.079 575.089,432.296 L575.165,431.115 L575.751,431.739 C578.039,434.177 577.888,439.66 575.398,444.529 L574.879,445.544 L578.291,446.336 C602.547,451.968 639.086,452.953 666.01,448.699 C682.108,446.156 691.701,443.841 703.605,439.629 C706.496,438.606 708.897,437.734 708.938,437.692 C708.979,437.65 708.668,436.922 708.245,436.074 C705.679,430.922 705.598,425.438 708.048,422.679 L708.647,422.005 L708.829,424.253 C709.479,432.299 715.912,441.277 723.086,444.151 L725.346,445.056 L724.72,445.453 C721.414,447.549 714.75,445.173 711.323,440.676 C710.28,439.306 710.899,439.152 704.531,442.367 C690.36,449.524 675.098,454.626 658.397,457.792 C655.308,458.377 638.553,460.083 636.941,459.976 z M642.87,337.385 C657.137,344.155 664.203,348.83 669.691,355.133 C677.748,364.387 678.713,375.602 672.058,382.671 C666.806,388.252 657.482,387.925 652.242,381.973 C642.951,371.424 638.494,357.297 639.943,342.997 C640.151,340.947 640.853,336.605 640.984,336.564 C641.035,336.548 641.884,336.916 642.87,337.385 z M618.037,332.417 C606.483,343.185 601.162,349.778 597.836,357.444 C592.954,368.701 595.424,379.682 603.905,384.41 C610.6,388.142 619.387,385.01 622.583,377.754 C628.25,364.889 628.227,350.075 622.523,336.884 C621.705,334.992 619.723,331.064 619.587,331.065 C619.533,331.065 618.835,331.674 618.037,332.417 z M670.341,409.988 C671.248,414.763 668.112,419.37 663.336,420.277 C658.56,421.184 653.953,418.048 653.046,413.272 C652.139,408.496 655.275,403.89 660.051,402.982 C664.827,402.075 669.434,405.212 670.341,409.988 z M623.923,413.734 C624.83,418.51 621.693,423.117 616.918,424.024 C612.142,424.931 607.535,421.795 606.628,417.019 C605.721,412.243 608.857,407.636 613.633,406.729 C618.409,405.822 623.016,408.958 623.923,413.734 z " />
	</g>
</svg>
